<svg width="124" height="109" viewBox="0 0 124 109" fill="none" xmlns="http://www.w3.org/2000/svg">
<path d="M62.814 108.49C44.7959 108.49 26.7778 108.49 8.75968 108.49C7.87951 108.49 6.98797 108.49 6.10401 108.4C1.59316 107.98 -0.22029 104.952 1.70318 100.857C3.37246 97.3227 5.19349 93.8786 6.96141 90.3817C15.3078 73.9164 23.6542 57.4536 32.0006 40.9933C32.2586 40.4905 32.528 39.9877 32.8277 39.5076C34.9294 36.1505 38.3439 35.6779 41.0337 38.5738C42.9306 40.6001 44.5354 42.876 46.2274 45.0725C54.8268 56.2703 63.4261 67.4732 72.0254 78.6811C75.7813 83.5579 80.5122 83.8225 84.9244 79.4372C87.1134 77.2596 89.2531 75.0253 91.4687 72.8667C95.4636 68.9727 99.9972 69.2071 103.26 73.7475C109.808 82.8585 116.193 92.0905 122.608 101.292C123.11 102.014 123.494 102.81 123.747 103.651C124.369 105.765 123.489 107.466 121.337 108.029C119.989 108.351 118.604 108.499 117.217 108.471C99.093 108.502 80.9586 108.508 62.814 108.49Z" fill="#D4D2E3"/>
<path d="M103.222 18.2688C103.217 21.7832 102.166 25.2171 100.2 28.1352C98.2347 31.0532 95.444 33.324 92.1818 34.6597C88.9197 35.9954 85.333 36.3358 81.8765 35.6377C78.42 34.9396 75.2493 33.2345 72.7664 30.7386C70.2836 28.2427 68.6003 25.0683 67.9301 21.618C67.2599 18.1676 67.6329 14.5966 69.0018 11.3578C70.3707 8.1189 72.6738 5.358 75.6193 3.42508C78.5647 1.49217 82.0198 0.474292 85.5465 0.500493C90.2427 0.559962 94.7273 2.45594 98.0337 5.7797C101.34 9.10346 103.203 13.5888 103.222 18.2688Z" fill="#D4D2E3"/>
</svg>
