<svg width="185" height="45" viewBox="0 0 185 45" fill="none" xmlns="http://www.w3.org/2000/svg">
<path d="M20.6869 0.230462C18.3145 0.499175 14.7559 1.61537 12.7311 2.73157C7.29096 5.68742 3.60963 10.2969 1.76896 16.436C1.40083 17.6348 0.97134 20.9007 0.991792 22.4303C0.991792 23.7739 1.40083 27.0605 1.64625 27.846C1.76896 28.218 2.03484 29.1068 2.25981 29.789C2.62794 30.9465 4.40725 34.5845 4.71403 34.8325C4.77538 34.8945 5.10261 35.3079 5.40939 35.7834C6.16611 36.9202 8.14994 38.9459 9.64292 40.1034C10.7882 40.9923 14.0196 42.8733 14.4286 42.8939C14.5309 42.8939 14.5514 42.1085 14.49 41.0749C14.3468 38.7805 14.7763 35.6593 15.6967 32.4761C15.8603 31.9387 15.983 31.2359 15.983 30.9258C15.983 30.6158 16.0648 30.2851 16.1671 30.1817C16.2693 30.0577 16.4534 29.4582 16.5556 28.8381C16.6784 28.218 16.8829 27.2672 17.026 26.7298C17.2305 25.9236 17.2101 25.6136 16.9238 24.7454C16.5147 23.4225 16.4943 21.2728 16.9033 20.2393C17.8646 17.7795 18.9281 16.8494 20.7278 16.8494C22.8957 16.8494 23.9388 18.503 23.5297 21.2728C23.3456 22.5337 22.8344 24.518 22.5071 25.1382C22.4253 25.3242 22.2822 25.8409 22.2208 26.275C22.139 26.7298 21.9754 27.3705 21.8731 27.7219C21.5868 28.5281 22.139 30.099 22.8753 30.6985C23.5706 31.2566 25.0227 31.4219 26.3521 31.1119C27.2929 30.9052 27.6814 30.6571 28.6631 29.7063C29.8289 28.5488 30.7083 27.2052 30.7083 26.5644C30.7083 26.3784 30.8106 26.1303 30.9333 26.0063C31.5059 25.4275 31.8127 20.9214 31.3832 19.0197C30.9128 16.9321 29.4607 14.8857 27.5792 13.6868C25.6976 12.4673 21.8118 12.1159 19.4189 12.9427C17.7418 13.5215 16.2489 14.493 15.2876 15.6298C14.4286 16.6427 13.5288 18.2963 13.5288 18.8751C13.5288 19.0818 13.4265 19.3505 13.3038 19.4745C13.1811 19.5985 13.0379 20.384 12.9766 21.2315C12.8743 22.4924 12.9561 23.0711 13.3243 24.3113C13.5697 25.1588 14.0196 26.151 14.2855 26.5231C14.8377 27.2672 14.8377 27.5566 14.3264 29.5409C14.1832 30.0784 13.9378 30.5744 13.7946 30.6364C12.5062 31.1325 9.88834 28.0113 9.00891 24.9108C8.68168 23.7326 8.66123 19.5365 8.98846 18.2963C9.13162 17.7795 9.37704 17.0767 9.54066 16.7047C9.70427 16.3533 9.84744 16.0019 9.84744 15.9192C9.84744 15.8365 10.2565 15.1337 10.7678 14.3689C13.4265 10.3176 17.7418 8.16785 23.2025 8.16785C24.45 8.16785 25.7385 8.25053 26.0862 8.35388C28.9085 9.24271 29.6653 9.53209 30.7697 10.1935C32.9171 11.4958 34.4714 13.2734 36.0258 16.2499C36.128 16.436 36.2712 16.9321 36.3326 17.3455C36.4144 17.7589 36.5575 18.1516 36.6598 18.2136C36.7621 18.2756 36.8439 19.6192 36.8439 21.2108C36.8439 24.084 36.6393 25.2415 35.7804 27.5979C34.8191 30.1817 32.3445 33.0342 30.0948 34.1504C28.8063 34.7705 26.393 35.4526 25.4317 35.4526C24.1433 35.4526 21.6072 34.3778 20.9119 33.5096C20.5847 33.1169 20.2779 33.2616 20.2779 33.8197C20.2779 34.0264 20.1961 34.3778 20.0734 34.5845C19.9711 34.7705 19.787 35.3493 19.6848 35.866C19.0917 38.5945 18.2531 40.8062 16.9647 42.8733C16.5761 43.514 16.9033 43.8861 17.9668 44.0308C18.4986 44.1135 19.2144 44.2582 19.5416 44.3615C20.3597 44.6302 24.7977 44.5889 26.2907 44.3202C27.6405 44.0721 29.8289 43.452 30.8106 43.0386C36.987 40.4755 41.6705 35.2666 43.6952 28.6314C44.7792 25.0968 44.8405 20.9834 43.8588 16.8494C43.5316 15.5058 43.4294 15.1957 42.5499 13.1287C41.2819 10.1109 38.4187 6.57624 35.5145 4.40586C33.0194 2.54553 30.5651 1.47068 26.7407 0.540516C25.6772 0.292472 21.8936 0.0857696 20.6869 0.230462ZM75.232 7.69243C74.4343 7.81646 73.1663 9.13935 72.8391 10.1729C72.4914 11.3097 72.8391 12.5293 73.8208 13.4801C75.9887 15.6092 79.7518 13.6041 79.2814 10.5449C78.9951 8.60193 77.2362 7.36171 75.232 7.69243ZM52.9395 8.91198C52.7554 9.11868 52.7554 34.047 52.9599 34.3364C53.0622 34.5018 53.9416 34.5638 55.6595 34.5431L58.216 34.5225L58.3183 30.3264C58.4001 26.9158 58.4819 26.089 58.7273 25.9443C58.8909 25.8409 60.2817 25.7376 61.8156 25.7376C65.1697 25.7376 66.5808 25.4895 68.1147 24.6627C70.119 23.5672 71.2848 21.9963 71.9188 19.4952C72.3073 17.9242 72.3073 16.7874 71.8983 15.1751C71.5302 13.7282 71.3666 13.3768 70.4871 12.1986C69.4032 10.731 68.2988 9.92483 66.499 9.28405C65.4969 8.95332 64.6584 8.89131 59.2386 8.8293C55.8641 8.78796 53.0213 8.8293 52.9395 8.91198ZM64.1675 14.0589C65.5378 14.493 66.2127 15.1131 66.5195 16.2293C66.9081 17.6968 66.6217 19.0611 65.7628 19.8879C64.822 20.7767 63.9834 20.9834 61.2429 20.9834C59.4431 20.9834 58.8909 20.9214 58.6455 20.6527C58.3796 20.4047 58.3183 19.8052 58.3183 17.4488C58.3183 13.7282 58.2978 13.7488 61.1406 13.7488C62.3677 13.7488 63.554 13.8728 64.1675 14.0589ZM100.04 12.8393C100.04 14.2656 99.9378 15.6092 99.8355 15.8365C99.6924 16.1052 99.406 16.2293 98.9152 16.2293C98.5471 16.2293 98.1994 16.3119 98.1585 16.436C98.138 16.5393 98.138 17.2628 98.1994 18.0276C98.3016 19.3918 98.3221 19.4125 98.9356 19.5572C99.2833 19.6192 99.6719 19.7432 99.7946 19.8259C99.9787 19.9292 100.04 21.5622 100.04 25.6962C100.04 31.2566 100.06 31.4633 100.51 32.2901C101.451 34.047 102.924 34.6672 105.91 34.5845L107.914 34.5225L107.975 32.5174L108.037 30.4918H107.525C106.748 30.4918 105.603 29.8717 105.48 29.3756C105.419 29.1275 105.358 26.9365 105.358 24.4767C105.358 21.0868 105.419 19.9499 105.623 19.7845C105.767 19.6605 106.339 19.5365 106.891 19.4952L107.914 19.4332V16.3326L106.789 16.2706C106.176 16.2293 105.603 16.0846 105.521 15.9605C105.439 15.8159 105.358 14.4723 105.358 12.9634V10.2349H100.04V12.8393ZM176.06 10.3589C175.978 10.4416 175.916 11.7438 175.916 13.2527C175.916 16.1879 175.896 16.2293 174.771 16.2293C174.26 16.2293 174.26 16.2499 174.321 17.8209C174.382 19.3918 174.403 19.4332 174.935 19.4952C175.221 19.5365 175.569 19.6812 175.671 19.8052C175.794 19.9499 175.916 22.451 175.978 25.6342C176.039 28.6934 176.141 31.4839 176.223 31.8147C176.469 32.7241 177.737 33.8817 178.943 34.2744C180.293 34.7292 183.729 34.7705 184.077 34.3364C184.24 34.1504 184.302 33.4063 184.261 32.3314L184.199 30.5951L183.484 30.4711C182.706 30.3471 181.827 29.9337 181.602 29.5823C181.52 29.4582 181.438 27.2052 181.438 24.5801C181.438 19.1851 181.316 19.5365 183.095 19.5365C184.261 19.5365 184.363 19.3298 184.261 17.4488L184.199 16.3326L182.87 16.2293L181.541 16.1259L181.438 13.2321L181.336 10.3382L178.759 10.2762C177.348 10.2555 176.141 10.2969 176.06 10.3589ZM89.9164 15.7332C88.9142 16.0019 87.7485 16.684 86.9713 17.4901C86.0305 18.4823 85.7851 18.4203 85.6828 17.1594L85.6215 16.3326H80.5085V34.5225L83.0855 34.5638C85.6215 34.6258 85.6828 34.6051 85.8055 34.1504C85.8669 33.9024 85.9283 31.2772 85.9283 28.3007C85.9283 22.4097 85.9487 22.2443 87.1554 21.0868C87.6871 20.57 87.9734 20.4667 89.1188 20.4047L90.4481 20.322L91.2457 21.1695C92.1865 22.1616 92.0843 21.2108 92.1661 29.7683C92.1865 32.042 92.207 34.047 92.2274 34.2537C92.2683 34.5431 92.5956 34.5845 94.8862 34.5431L97.4836 34.5225V20.0119L96.8904 18.8337C95.8679 16.7874 94.2931 15.8159 91.8797 15.6918C91.0208 15.6712 90.1413 15.6712 89.9164 15.7332ZM115.481 15.7332C113.272 16.3326 112.209 16.932 110.839 18.2963C108.998 20.1773 108.159 22.3683 108.159 25.3242C108.18 30.5124 111.391 34.3571 116.136 34.8118C120.185 35.2046 123.314 34.0057 125.318 31.2979C125.605 30.9052 126.218 29.6443 126.218 29.4169C126.218 29.3342 125.032 29.2515 123.601 29.2515H120.983L120.369 29.8923C119.653 30.6364 118.651 31.1119 117.731 31.1119C116.811 31.1119 115.399 30.4504 114.745 29.7476C114.254 29.1895 113.538 27.5772 113.538 27.0191C113.538 26.8331 115.031 26.7711 119.837 26.7711C123.294 26.7711 126.218 26.6884 126.362 26.6057C126.668 26.399 126.382 23.1125 125.932 21.9136C125.012 19.4125 123.273 17.3041 121.514 16.56C121.003 16.3533 120.41 16.0846 120.206 15.9812C119.776 15.7538 116.136 15.5678 115.481 15.7332ZM119.469 20.26C120.267 20.8181 120.962 22.141 120.86 22.8851C120.799 23.3605 120.758 23.3605 117.301 23.4225C113.313 23.4845 113.293 23.4639 113.927 21.9756C114.377 20.9421 115.277 20.0119 116.115 19.7432C117.076 19.4332 118.631 19.6812 119.469 20.26ZM145.75 15.7332C143.377 16.374 141.721 17.4281 140.432 19.0611C139.921 19.7225 139.512 20.3426 139.512 20.4667C139.512 20.57 139.369 20.9421 139.185 21.2935C139.001 21.6242 138.735 22.6577 138.592 23.5879C137.876 28.0113 139.839 32.1454 143.521 34.0057L144.932 34.7292H147.897C150.965 34.7292 151.231 34.6672 153.113 33.6543C154.483 32.9102 156.733 30.0163 156.385 29.4376C156.303 29.3342 155.137 29.2515 153.767 29.2515H151.251L150.74 29.851C148.695 32.1867 144.87 30.9878 144.052 27.7426C143.93 27.3085 143.93 26.9365 144.032 26.8538C144.134 26.7918 147.059 26.7504 150.556 26.7711C155.546 26.7711 156.896 26.7298 156.917 26.5231C157.101 23.9393 155.874 20.1153 154.34 18.4617C153.481 17.5315 151.988 16.498 151.251 16.3119C150.924 16.2293 150.556 16.0846 150.413 15.9812C150.127 15.7538 146.384 15.5678 145.75 15.7332ZM148.94 19.7639C149.861 20.0946 150.924 21.2521 151.088 22.141C151.333 23.4845 151.354 23.4845 147.55 23.4225C144.134 23.3605 144.114 23.3605 144.052 22.8851C143.971 22.3063 144.686 20.8801 145.3 20.3426C146.179 19.5985 147.713 19.3505 148.94 19.7639ZM163.543 15.7332C159.35 16.746 157.837 18.2549 157.816 21.3968C157.816 24.7868 159.494 26.213 164.463 27.1018C167.879 27.7013 168.86 28.2387 168.82 29.5409C168.799 30.4711 168.165 31.0705 166.897 31.3392C165.302 31.6906 164.054 31.2979 163.052 30.161L162.255 29.2515H159.78C157.776 29.2515 157.305 29.3136 157.305 29.5409C157.305 30.1404 158.123 31.7113 158.798 32.4968C159.432 33.1789 159.923 33.5096 161.845 34.4398C162.03 34.5431 163.032 34.7085 164.034 34.8325C165.895 35.0599 169.126 34.8532 169.944 34.4398C170.128 34.3571 170.66 34.0884 171.11 33.8817C172.276 33.3236 173.38 32.0627 173.789 30.8638C174.239 29.4996 174.117 27.5979 173.483 26.275C172.726 24.7247 170.722 23.6086 167.736 23.0711C163.891 22.389 163.829 22.3683 163.216 21.7689C162.479 21.0041 162.479 20.7354 163.216 19.9086C163.809 19.2471 163.85 19.2265 165.486 19.2265C167.122 19.2265 167.163 19.2471 167.756 19.9086C168.083 20.2806 168.349 20.7147 168.349 20.8801C168.349 21.1281 168.779 21.1901 170.906 21.1901C173.728 21.1901 173.646 21.2521 173.155 19.7845C172.255 17.1801 169.944 15.8572 166.099 15.7125C164.913 15.6712 163.768 15.6712 163.543 15.7332ZM136.342 16.1672C135.442 16.4773 134.195 17.5108 133.806 18.2549C133.417 18.9991 133.07 18.689 132.967 17.4488L132.865 16.3326H127.752L127.691 25.0141C127.67 29.789 127.691 33.9024 127.752 34.1711C127.855 34.6258 127.916 34.6258 130.37 34.5845C131.781 34.5638 132.927 34.4398 133.008 34.3158C133.09 34.2124 133.172 32.0214 133.172 29.4582C133.172 25.4069 133.213 24.6834 133.561 23.7739C134.276 21.8929 135.81 20.7767 137.733 20.7767C138.265 20.7767 138.489 20.6734 138.551 20.4047C138.694 19.8052 138.714 17.0147 138.592 16.3946C138.469 15.8985 138.367 15.8159 137.815 15.8365C137.446 15.8572 136.792 16.0019 136.342 16.1672ZM73.3504 16.4773C73.289 16.622 73.2686 20.694 73.289 25.5309L73.3504 34.3158L75.7842 34.4191C77.2567 34.4811 78.3202 34.4398 78.4838 34.3158C78.7088 34.1504 78.7701 32.3934 78.7701 25.3655C78.7906 20.57 78.7292 16.5393 78.6679 16.436C78.4633 16.1259 73.4526 16.1672 73.3504 16.4773Z" fill="#BCBACD"/>
</svg>
