<svg width="565" height="557" viewBox="0 0 565 557" fill="none" xmlns="http://www.w3.org/2000/svg">
<rect width="564.884" height="557" rx="30" fill="#5D5A88"/>
<path d="M282.814 332.49C264.796 332.49 246.778 332.49 228.76 332.49C227.88 332.49 226.988 332.49 226.104 332.4C221.593 331.98 219.78 328.952 221.703 324.857C223.372 321.323 225.193 317.879 226.961 314.382C235.308 297.916 243.654 281.454 252.001 264.993C252.259 264.491 252.528 263.988 252.828 263.508C254.929 260.151 258.344 259.678 261.034 262.574C262.931 264.6 264.535 266.876 266.227 269.072C274.827 280.27 283.426 291.473 292.025 302.681C295.781 307.558 300.512 307.823 304.924 303.437C307.113 301.26 309.253 299.025 311.469 296.867C315.464 292.973 319.997 293.207 323.26 297.748C329.808 306.858 336.193 316.09 342.608 325.292C343.11 326.014 343.494 326.81 343.747 327.651C344.369 329.765 343.489 331.466 341.337 332.029C339.989 332.351 338.604 332.499 337.217 332.471C319.093 332.502 300.959 332.508 282.814 332.49Z" fill="#D4D2E3"/>
<path d="M323.222 242.269C323.217 245.783 322.166 249.217 320.2 252.135C318.235 255.053 315.444 257.324 312.182 258.66C308.92 259.995 305.333 260.336 301.876 259.638C298.42 258.94 295.249 257.235 292.766 254.739C290.284 252.243 288.6 249.068 287.93 245.618C287.26 242.168 287.633 238.597 289.002 235.358C290.371 232.119 292.674 229.358 295.619 227.425C298.565 225.492 302.02 224.474 305.547 224.5C310.243 224.56 314.727 226.456 318.034 229.78C321.34 233.103 323.203 237.589 323.222 242.269Z" fill="#D4D2E3"/>
</svg>
