<svg width="707" height="608" viewBox="0 0 707 608" fill="none" xmlns="http://www.w3.org/2000/svg">
<rect x="0.695068" width="706.305" height="608" fill="#5D5A88"/>
<path d="M354.22 357.99C336.202 357.99 318.183 357.99 300.165 357.99C299.285 357.99 298.394 357.99 297.51 357.9C292.999 357.48 291.185 354.452 293.109 350.357C294.778 346.823 296.599 343.379 298.367 339.882C306.713 323.416 315.06 306.954 323.406 290.493C323.664 289.991 323.934 289.488 324.233 289.008C326.335 285.651 329.75 285.178 332.439 288.074C334.336 290.1 335.941 292.376 337.633 294.572C346.232 305.77 354.832 316.973 363.431 328.181C367.187 333.058 371.918 333.323 376.33 328.937C378.519 326.76 380.659 324.525 382.874 322.367C386.869 318.473 391.403 318.707 394.666 323.248C401.214 332.358 407.599 341.59 414.014 350.792C414.515 351.514 414.899 352.31 415.152 353.151C415.774 355.265 414.894 356.966 412.743 357.529C411.394 357.851 410.01 357.999 408.623 357.971C390.499 358.002 372.364 358.008 354.22 357.99Z" fill="#D4D2E3"/>
<path d="M394.628 267.769C394.623 271.283 393.571 274.717 391.606 277.635C389.64 280.553 386.85 282.824 383.587 284.16C380.325 285.495 376.739 285.836 373.282 285.138C369.826 284.44 366.655 282.735 364.172 280.239C361.689 277.743 360.006 274.568 359.336 271.118C358.666 267.668 359.038 264.097 360.407 260.858C361.776 257.619 364.079 254.858 367.025 252.925C369.97 250.992 373.425 249.974 376.952 250C381.648 250.06 386.133 251.956 389.439 255.28C392.746 258.603 394.609 263.089 394.628 267.769Z" fill="#D4D2E3"/>
</svg>
